<svg xmlns="http://www.w3.org/2000/svg" viewBox="0 0 74.5 25"><path d="M0 0h5.9C11.9 0 16 3.1 16 10.4S12 21 6.1 21H0V0zm17.2 0h4.9l.6 11.2v5.2h.2c.2-1.9.6-3.5 1-5.2l1.4-5.8h3l1.4 5.8c.4 1.7.8 3.3 1 5.2h.3c0-1.9 0-3.5.2-5.2L31.8 0h4.7l-2.6 21h-5.1l-1.4-6.5c-.2-1.2-.6-2.7-.6-4-.2 1.2-.4 2.7-.6 4L24.9 21H20L17.2 0zm26.1 0h-5.1l.4 21h3.8v-6.5c0-2.5-.4-7.5-.6-9.8l1.4 5.6 1.6 5H47l1.6-5 1.8-5.6c-.2 2.3-.6 7.5-.6 9.8V21h4V0H49l-2 7.5-.8 2.9H46l-.6-2.9L43.3 0zM5.7 17.3c3.2 0 5.5-1.9 5.5-6.9S9 3.7 5.7 3.7h-.8v13.5l.8.1z" fill-rule="evenodd" clip-rule="evenodd" fill="#fff"/><path d="M59.9 25h14.6v-4H59.9v4z" fill-rule="evenodd" clip-rule="evenodd" fill="#fbdb1c"/></svg>