<svg xmlns="http://www.w3.org/2000/svg" xmlns:xlink="http://www.w3.org/1999/xlink" width="44" height="44"><defs><path id="a" d="M0 0h44v44H0z"/><mask id="b" maskContentUnits="userSpaceOnUse" maskUnits="userSpaceOnUse"><path d="M0 0h44v44H0z"/><use fill="#fff" xlink:href="#a"/></mask></defs><use fill="none" xlink:href="#a"/><g mask="url(#b)" fill="#fff" fill-rule="evenodd"><path d="M26.2 17.8c-1.4-1.4-3.5-2.1-5.5-1.6-.2.6-.4 1.3-.4 2 0 3.7 3.4 6.7 7.2 5.8.2-.6.4-1.3.4-2 .1-1.6-.6-3.1-1.7-4.2z"/><path d="M0 22C0 9.9 9.9 0 22 0c12.2 0 22 9.9 22 22 0 12.2-9.8 22-22 22C9.9 44 0 34.2 0 22zm29 .5h4.9c.3 0 .4-.2.4-.5s-.2-.5-.5-.5h-4.9c-.1-1.5-.7-2.9-1.7-4l3.5-3.5c.1-.1.1-.3.1-.5-.1-.2-.2-.4-.4-.4-.2-.1-.4 0-.5.1l-3.5 3.5c-1.2-1.1-2.5-1.6-4-1.7v-5c0-.3-.2-.5-.5-.5s-.5.2-.5.5v4.9c-1.6.2-2.9.8-4 1.7l-3.5-3.5c-.1-.1-.3-.2-.5-.1s-.4.2-.4.4 0 .4.2.6l3.5 3.4c-1 1.1-1.6 2.5-1.7 4h-4.9c-.2 0-.4.1-.5.3-.1.1-.1.3 0 .5s.3.3.5.3H15c.1 1.5.7 2.9 1.7 4L13.2 30c-.2.3-.2.6 0 .8.2.2.6.2.8 0l3.3-3.5c1.1 1 2.5 1.6 4 1.7v4.9c0 .2.1.4.3.5.2.1.4.1.6 0 .2-.1.3-.3.3-.5V29c1.5-.1 2.9-.7 4-1.7l3.5 3.5c.1.1.3.2.4.2.2 0 .4-.2.5-.4.1-.2.1-.4-.1-.6l-3.5-3.5c1.1-1.2 1.6-2.4 1.7-4z"/></g></svg>